<?xml version="1.0" encoding="UTF-8" standalone="no"?>
<!DOCTYPE svg PUBLIC "-//W3C//DTD SVG 1.1//EN"
 "http://www.w3.org/Graphics/SVG/1.1/DTD/svg11.dtd">
<!-- Generated by graphviz version 2.38.0 (20140413.2041)
 -->
<!-- Title: root Pages: 1 -->
<svg width="657pt" height="188pt"
 viewBox="0.00 0.00 657.07 188.00" xmlns="http://www.w3.org/2000/svg" xmlns:xlink="http://www.w3.org/1999/xlink">
<g id="graph0" class="graph" transform="scale(1 1) rotate(0) translate(4 184)">
<title>root</title>
<polygon fill="white" stroke="none" points="-4,4 -4,-184 653.074,-184 653.074,4 -4,4"/>
<!-- root -->
<g id="node1" class="node"><title>root</title>
<polygon fill="orange" stroke="black" points="325,-180 271,-180 271,-144 325,-144 325,-180"/>
<text text-anchor="middle" x="298" y="-159.2" font-family="Times,serif" font-size="11.00">root</text>
</g>
<!-- sync -->
<g id="node2" class="node"><title>sync</title>
<ellipse fill="gray" stroke="black" cx="27" cy="-90" rx="27" ry="18"/>
<text text-anchor="middle" x="27" y="-87.2" font-family="Times,serif" font-size="11.00">sync</text>
</g>
<!-- root&#45;&gt;sync -->
<g id="edge1" class="edge"><title>root&#45;&gt;sync</title>
<path fill="none" stroke="black" d="M270.681,-156.842C226.306,-149.646 136.161,-133.182 63,-108 61.0884,-107.342 59.1436,-106.612 57.1982,-105.836"/>
<polygon fill="black" stroke="black" points="58.1839,-102.449 47.6168,-101.682 55.3995,-108.871 58.1839,-102.449"/>
</g>
<!-- wait for goal -->
<g id="node3" class="node"><title>wait for goal</title>
<polygon fill="cyan" stroke="black" points="168.331,-82.5442 168.331,-97.4558 140.019,-108 99.9805,-108 71.6687,-97.4558 71.6687,-82.5442 99.9805,-72 140.019,-72 168.331,-82.5442"/>
<text text-anchor="middle" x="120" y="-87.2" font-family="Times,serif" font-size="11.00">wait for goal</text>
</g>
<!-- root&#45;&gt;wait for goal -->
<g id="edge2" class="edge"><title>root&#45;&gt;wait for goal</title>
<path fill="none" stroke="black" d="M270.966,-150.369C241.932,-138.951 195.432,-120.664 161.704,-107.4"/>
<polygon fill="black" stroke="black" points="162.706,-104.034 152.118,-103.631 160.144,-110.548 162.706,-104.034"/>
</g>
<!-- update constraints -->
<g id="node6" class="node"><title>update constraints</title>
<ellipse fill="gray" stroke="black" cx="244" cy="-90" rx="58.16" ry="18"/>
<text text-anchor="middle" x="244" y="-87.2" font-family="Times,serif" font-size="11.00">update constraints</text>
</g>
<!-- root&#45;&gt;update constraints -->
<g id="edge5" class="edge"><title>root&#45;&gt;update constraints</title>
<path fill="none" stroke="black" d="M284.652,-143.697C278.148,-135.265 270.209,-124.975 263.079,-115.732"/>
<polygon fill="black" stroke="black" points="265.702,-113.402 256.823,-107.622 260.16,-117.678 265.702,-113.402"/>
</g>
<!-- planning -->
<g id="node7" class="node"><title>planning</title>
<ellipse fill="gray" stroke="black" cx="353" cy="-90" rx="32.4445" ry="18"/>
<text text-anchor="middle" x="353" y="-87.2" font-family="Times,serif" font-size="11.00">planning</text>
</g>
<!-- root&#45;&gt;planning -->
<g id="edge6" class="edge"><title>root&#45;&gt;planning</title>
<path fill="none" stroke="black" d="M311.596,-143.697C318.485,-134.929 326.953,-124.15 334.433,-114.631"/>
<polygon fill="black" stroke="black" points="337.261,-116.697 340.687,-106.671 331.757,-112.372 337.261,-116.697"/>
</g>
<!-- move robot -->
<g id="node11" class="node"><title>move robot</title>
<ellipse fill="gray" stroke="black" cx="479" cy="-90" rx="39.8775" ry="18"/>
<text text-anchor="middle" x="479" y="-87.2" font-family="Times,serif" font-size="11.00">move robot</text>
</g>
<!-- root&#45;&gt;move robot -->
<g id="edge10" class="edge"><title>root&#45;&gt;move robot</title>
<path fill="none" stroke="black" d="M325.098,-150.52C355.746,-138.667 405.892,-119.274 440.573,-105.861"/>
<polygon fill="black" stroke="black" points="441.852,-109.119 449.916,-102.248 439.327,-102.591 441.852,-109.119"/>
</g>
<!-- send result -->
<g id="node14" class="node"><title>send result</title>
<ellipse fill="gray" stroke="black" cx="576" cy="-90" rx="39.1741" ry="18"/>
<text text-anchor="middle" x="576" y="-87.2" font-family="Times,serif" font-size="11.00">send result</text>
</g>
<!-- root&#45;&gt;send result -->
<g id="edge13" class="edge"><title>root&#45;&gt;send result</title>
<path fill="none" stroke="black" d="M325.168,-155.785C368.463,-147.24 455.611,-129.085 528,-108 530.96,-107.138 534.005,-106.195 537.055,-105.21"/>
<polygon fill="black" stroke="black" points="538.36,-108.464 546.726,-101.964 536.132,-101.828 538.36,-108.464"/>
</g>
<!-- has goal -->
<g id="node4" class="node"><title>has goal</title>
<ellipse fill="gray" stroke="black" cx="40" cy="-18" rx="31.7423" ry="18"/>
<text text-anchor="middle" x="40" y="-15.2" font-family="Times,serif" font-size="11.00">has goal</text>
</g>
<!-- wait for goal&#45;&gt;has goal -->
<g id="edge3" class="edge"><title>wait for goal&#45;&gt;has goal</title>
<path fill="none" stroke="black" d="M100.225,-71.6966C89.3223,-62.157 75.6997,-50.2372 64.1696,-40.1484"/>
<polygon fill="black" stroke="black" points="66.4112,-37.4591 56.5806,-33.508 61.8016,-42.7271 66.4112,-37.4591"/>
</g>
<!-- monitor -->
<g id="node5" class="node"><title>monitor</title>
<ellipse fill="gray" stroke="black" cx="120" cy="-18" rx="30.1339" ry="18"/>
<text text-anchor="middle" x="120" y="-15.2" font-family="Times,serif" font-size="11.00">monitor</text>
</g>
<!-- wait for goal&#45;&gt;monitor -->
<g id="edge4" class="edge"><title>wait for goal&#45;&gt;monitor</title>
<path fill="none" stroke="black" d="M120,-71.6966C120,-63.9827 120,-54.7125 120,-46.1124"/>
<polygon fill="black" stroke="black" points="123.5,-46.1043 120,-36.1043 116.5,-46.1044 123.5,-46.1043"/>
</g>
<!-- goal canceled -->
<g id="node8" class="node"><title>goal canceled</title>
<ellipse fill="gray" stroke="black" cx="215" cy="-18" rx="46.8089" ry="18"/>
<text text-anchor="middle" x="215" y="-15.2" font-family="Times,serif" font-size="11.00">goal canceled</text>
</g>
<!-- planning&#45;&gt;goal canceled -->
<g id="edge7" class="edge"><title>planning&#45;&gt;goal canceled</title>
<path fill="none" stroke="black" d="M329.902,-77.2836C308.538,-66.447 276.43,-50.1604 251.582,-37.556"/>
<polygon fill="black" stroke="black" points="252.953,-34.327 242.451,-32.9246 249.786,-40.5698 252.953,-34.327"/>
</g>
<!-- in collision -->
<g id="node9" class="node"><title>in collision</title>
<ellipse fill="gray" stroke="black" cx="319" cy="-18" rx="39.1741" ry="18"/>
<text text-anchor="middle" x="319" y="-15.2" font-family="Times,serif" font-size="11.00">in collision</text>
</g>
<!-- planning&#45;&gt;in collision -->
<g id="edge8" class="edge"><title>planning&#45;&gt;in collision</title>
<path fill="none" stroke="black" d="M344.942,-72.411C340.978,-64.2493 336.107,-54.2203 331.66,-45.0653"/>
<polygon fill="black" stroke="black" points="334.753,-43.4221 327.236,-35.9562 328.457,-46.4805 334.753,-43.4221"/>
</g>
<!-- planning* -->
<g id="node10" class="node"><title>planning*</title>
<ellipse fill="gray" stroke="black" cx="412" cy="-18" rx="35.4579" ry="18"/>
<text text-anchor="middle" x="412" y="-15.2" font-family="Times,serif" font-size="11.00">planning*</text>
</g>
<!-- planning&#45;&gt;planning* -->
<g id="edge9" class="edge"><title>planning&#45;&gt;planning*</title>
<path fill="none" stroke="black" d="M366.094,-73.4647C373.702,-64.4386 383.444,-52.88 391.995,-42.7349"/>
<polygon fill="black" stroke="black" points="394.765,-44.8791 398.534,-34.9772 389.413,-40.3678 394.765,-44.8791"/>
</g>
<!-- goal canceled* -->
<g id="node12" class="node"><title>goal canceled*</title>
<ellipse fill="gray" stroke="black" cx="515" cy="-18" rx="49.8222" ry="18"/>
<text text-anchor="middle" x="515" y="-15.2" font-family="Times,serif" font-size="11.00">goal canceled*</text>
</g>
<!-- move robot&#45;&gt;goal canceled* -->
<g id="edge11" class="edge"><title>move robot&#45;&gt;goal canceled*</title>
<path fill="none" stroke="black" d="M487.531,-72.411C491.729,-64.2493 496.887,-54.2203 501.595,-45.0653"/>
<polygon fill="black" stroke="black" points="504.819,-46.4498 506.28,-35.9562 498.594,-43.2484 504.819,-46.4498"/>
</g>
<!-- send traj -->
<g id="node13" class="node"><title>send traj</title>
<ellipse fill="gray" stroke="black" cx="616" cy="-18" rx="33.1473" ry="18"/>
<text text-anchor="middle" x="616" y="-15.2" font-family="Times,serif" font-size="11.00">send traj</text>
</g>
<!-- move robot&#45;&gt;send traj -->
<g id="edge12" class="edge"><title>move robot&#45;&gt;send traj</title>
<path fill="none" stroke="black" d="M504.448,-75.9976C526.718,-64.6187 559.198,-48.023 583.373,-35.6706"/>
<polygon fill="black" stroke="black" points="585.206,-38.6647 592.518,-30.998 582.021,-32.4313 585.206,-38.6647"/>
</g>
</g>
</svg>
